#Comment line ignore any data following # character 
#Hierarchical Translation and Rotation (.htr) file 
[Header]	
#Header keywords are followed by a single value 
FileType HTR		#Single word string
DataType HTRS		#Translation followed by rotation and scale data
FileVersion 1		#integer
NumSegments 64		#integer
NumFrames 3		#integer
DataFrameRate 30		#integer, data frame rate in this file
EulerRotationOrder ZYX
CalibrationUnits mm
RotationUnits Degrees
GlobalAxisofGravity Y
BoneLengthAxis Y
ScaleFactor 1.00
[SegmentNames&Hierarchy]
#CHILD	PARENT
Pinger_Root GLOBAL
Pelvis Pinger_Root
L_Hip Pelvis
R_Hip Pelvis
Rear_Leg01 Pelvis
Spine1 Pelvis
L_Leg01 L_Hip
L_Leg02 L_Leg01
L_Leg03 L_Leg02
L_Foot L_Leg03
L_Toe1_01 L_Foot
L_Toe2_01 L_Foot
L_Toe3_01 L_Foot
planeAlignerLeft L_Foot
L_Toe1_02 L_Toe1_01
L_Toe1_03 L_Toe1_02
L_Toe2_02 L_Toe2_01
L_Toe2_03 L_Toe2_02
L_Toe3_02 L_Toe3_01
L_Toe3_03 L_Toe3_02
planeLockWeightLeft planeAlignerLeft
R_Leg01 R_Hip
R_Leg02 R_Leg01
R_Leg03 R_Leg02
R_Foot R_Leg03
planeAlignerRight R_Foot
R_Toe1_01 R_Foot
R_Toe2_01 R_Foot
R_Toe3_01 R_Foot
planeLockWeightRight planeAlignerRight
R_Toe1_02 R_Toe1_01
R_Toe1_03 R_Toe1_02
R_Toe2_02 R_Toe2_01
R_Toe2_03 R_Toe2_02
R_Toe3_02 R_Toe3_01
R_Toe3_03 R_Toe3_02
Rear_Leg02 Rear_Leg01
Rear_Leg03 Rear_Leg02
Rear_Leg04 Rear_Leg03
Rear_Foot Rear_Leg04
planeAlignerCenter Rear_Foot
Rear_Toe1_01 Rear_Foot
Rear_Toe2_01 Rear_Foot
Rear_Toe3_01 Rear_Foot
planeLockWeightCenter planeAlignerCenter
Rear_Toe1_02 Rear_Toe1_01
Rear_Toe1_03 Rear_Toe1_02
Rear_Toe2_02 Rear_Toe2_01
Rear_Toe2_03 Rear_Toe2_02
Rear_Toe3_02 Rear_Toe3_01
Rear_Toe3_03 Rear_Toe3_02
Back_Bone Spine1
Head Spine1
Motor_Bone Back_Bone
Ping_Mechanism Back_Bone
BN_LookIK Head
bottomMouth Head
L_Mouth01 Head
L_mouthFront Head
mouthGun Head
R_Mouth01 Head
R_mouthFront Head
TopMouth Head
weapon_bone Head
[BasePosition]
#SegmentName Tx, Ty, Tz, Rx, Ry, Rz, BoneLength
Pinger_Root 0.000000 0.000000 0.000000 -90.000000 0.000000 0.000000 10.000000 
Pelvis 0.000000 0.000000 0.000000 0.000000 0.000000 0.000000 10.000000 
L_Hip 0.000000 0.000000 0.000000 0.000000 0.000000 0.000000 10.000000 
R_Hip 0.000000 0.000000 0.000000 0.000000 0.000000 0.000000 10.000000 
Rear_Leg01 0.000000 0.000000 0.000000 0.000000 0.000000 0.000000 10.000000 
Spine1 0.000000 0.000000 0.000000 0.000000 0.000000 0.000000 10.000000 
L_Leg01 0.000000 0.000000 0.000000 0.000000 0.000000 0.000000 10.000000 
L_Leg02 0.000000 0.000000 0.000000 0.000000 0.000000 0.000000 10.000000 
L_Leg03 0.000000 0.000000 0.000000 0.000000 0.000000 0.000000 10.000000 
L_Foot 0.000000 0.000000 0.000000 0.000000 0.000000 0.000000 10.000000 
L_Toe1_01 0.000000 0.000000 0.000000 0.000000 0.000000 0.000000 10.000000 
L_Toe2_01 0.000000 0.000000 0.000000 0.000000 0.000000 0.000000 10.000000 
L_Toe3_01 0.000000 0.000000 0.000000 0.000000 0.000000 0.000000 10.000000 
planeAlignerLeft 0.000000 0.000000 0.000000 0.000000 0.000000 0.000000 10.000000 
L_Toe1_02 0.000000 0.000000 0.000000 0.000000 0.000000 0.000000 10.000000 
L_Toe1_03 0.000000 0.000000 0.000000 0.000000 0.000000 0.000000 10.000000 
L_Toe2_02 0.000000 0.000000 0.000000 0.000000 0.000000 0.000000 10.000000 
L_Toe2_03 0.000000 0.000000 0.000000 0.000000 0.000000 0.000000 10.000000 
L_Toe3_02 0.000000 0.000000 0.000000 0.000000 0.000000 0.000000 10.000000 
L_Toe3_03 0.000000 0.000000 0.000000 0.000000 0.000000 0.000000 10.000000 
planeLockWeightLeft 0.000000 0.000000 0.000000 0.000000 0.000000 0.000000 10.000000 
R_Leg01 0.000000 0.000000 0.000000 0.000000 0.000000 0.000000 10.000000 
R_Leg02 0.000000 0.000000 0.000000 0.000000 0.000000 0.000000 10.000000 
R_Leg03 0.000000 0.000000 0.000000 0.000000 0.000000 0.000000 10.000000 
R_Foot 0.000000 0.000000 0.000000 0.000000 0.000000 0.000000 10.000000 
planeAlignerRight 0.000000 0.000000 0.000000 0.000000 0.000000 0.000000 10.000000 
R_Toe1_01 0.000000 0.000000 0.000000 0.000000 0.000000 0.000000 10.000000 
R_Toe2_01 0.000000 0.000000 0.000000 0.000000 0.000000 0.000000 10.000000 
R_Toe3_01 0.000000 0.000000 0.000000 0.000000 0.000000 0.000000 10.000000 
planeLockWeightRight 0.000000 0.000000 0.000000 0.000000 0.000000 0.000000 10.000000 
R_Toe1_02 0.000000 0.000000 0.000000 0.000000 0.000000 0.000000 10.000000 
R_Toe1_03 0.000000 0.000000 0.000000 0.000000 0.000000 0.000000 10.000000 
R_Toe2_02 0.000000 0.000000 0.000000 0.000000 0.000000 0.000000 10.000000 
R_Toe2_03 0.000000 0.000000 0.000000 0.000000 0.000000 0.000000 10.000000 
R_Toe3_02 0.000000 0.000000 0.000000 0.000000 0.000000 0.000000 10.000000 
R_Toe3_03 0.000000 0.000000 0.000000 0.000000 0.000000 0.000000 10.000000 
Rear_Leg02 0.000000 0.000000 0.000000 0.000000 0.000000 0.000000 10.000000 
Rear_Leg03 0.000000 0.000000 0.000000 0.000000 0.000000 0.000000 10.000000 
Rear_Leg04 0.000000 0.000000 0.000000 0.000000 0.000000 0.000000 10.000000 
Rear_Foot 0.000000 0.000000 0.000000 0.000000 0.000000 0.000000 10.000000 
planeAlignerCenter 0.000000 0.000000 0.000000 0.000000 0.000000 0.000000 10.000000 
Rear_Toe1_01 0.000000 0.000000 0.000000 0.000000 0.000000 0.000000 10.000000 
Rear_Toe2_01 0.000000 0.000000 0.000000 0.000000 0.000000 0.000000 10.000000 
Rear_Toe3_01 0.000000 0.000000 0.000000 0.000000 0.000000 0.000000 10.000000 
planeLockWeightCenter 0.000000 0.000000 0.000000 0.000000 0.000000 0.000000 10.000000 
Rear_Toe1_02 0.000000 0.000000 0.000000 0.000000 0.000000 0.000000 10.000000 
Rear_Toe1_03 0.000000 0.000000 0.000000 0.000000 0.000000 0.000000 10.000000 
Rear_Toe2_02 0.000000 0.000000 0.000000 0.000000 0.000000 0.000000 10.000000 
Rear_Toe2_03 0.000000 0.000000 0.000000 0.000000 0.000000 0.000000 10.000000 
Rear_Toe3_02 0.000000 0.000000 0.000000 0.000000 0.000000 0.000000 10.000000 
Rear_Toe3_03 0.000000 0.000000 0.000000 0.000000 0.000000 0.000000 10.000000 
Back_Bone 0.000000 0.000000 0.000000 0.000000 0.000000 0.000000 10.000000 
Head 0.000000 0.000000 0.000000 0.000000 0.000000 0.000000 10.000000 
Motor_Bone 0.000000 0.000000 0.000000 0.000000 0.000000 0.000000 10.000000 
Ping_Mechanism 0.000000 0.000000 0.000000 0.000000 0.000000 0.000000 10.000000 
BN_LookIK 0.000000 0.000000 0.000000 0.000000 0.000000 0.000000 10.000000 
bottomMouth 0.000000 0.000000 0.000000 0.000000 0.000000 0.000000 10.000000 
L_Mouth01 0.000000 0.000000 0.000000 0.000000 0.000000 0.000000 10.000000 
L_mouthFront 0.000000 0.000000 0.000000 0.000000 0.000000 0.000000 10.000000 
mouthGun 0.000000 0.000000 0.000000 0.000000 0.000000 0.000000 10.000000 
R_Mouth01 0.000000 0.000000 0.000000 0.000000 0.000000 0.000000 10.000000 
R_mouthFront 0.000000 0.000000 0.000000 0.000000 0.000000 0.000000 10.000000 
TopMouth 0.000000 0.000000 0.000000 0.000000 0.000000 0.000000 10.000000 
weapon_bone 0.000000 0.000000 0.000000 0.000000 0.000000 0.000000 10.000000 
#Beginning of Data. Separated by tabs
#Fr	Tx	Ty	Tz	Rx	Ry	Rz	SF
[Pinger_Root]
46 -2499.999756 -0.000690 0.000000 -0.000075 -0.000000 -0.000020 2499.999756
47 -2499.999756 -0.000690 0.000000 -0.000075 -0.000000 -0.000020 2499.999756
48 -2499.999756 -0.000690 0.000000 -0.000075 -0.000000 -0.000020 2499.999756
[Pelvis]
46 -172.828705 788.830811 4350.817383 -107.207039 -69.107391 129.314545 4425.125488
47 -181.441147 806.648499 4309.704102 -105.884720 -68.220047 126.115540 4388.297363
48 -187.888260 823.869202 4254.517578 -104.474754 -67.650185 123.054558 4337.624023
[L_Hip]
46 5.766392 125.831482 872.656799 176.781082 -80.388649 92.654457 881.701050
47 5.766392 125.831482 872.656799 173.958878 -79.304764 95.710182 881.701050
48 5.766392 125.831482 872.656799 171.422836 -78.076698 98.536743 881.701050
[R_Hip]
46 5.765438 125.836372 -872.654907 5.596637 80.803947 94.455696 881.699829
47 5.765438 125.836372 -872.654907 10.096139 79.990120 98.757652 881.699829
48 5.765438 125.836372 -872.654907 13.973907 79.086990 102.458382 881.699829
[Rear_Leg01]
46 -192.298416 -925.602966 -0.001907 172.099747 15.804713 -163.904236 945.367432
47 -192.298416 -925.602966 -0.001907 171.137558 17.534039 -164.096313 945.367432
48 -192.298416 -925.602966 -0.001907 169.915390 18.544630 -164.521362 945.367432
[Spine1]
46 290.604584 5.007505 0.000477 -10.247289 12.694571 4.991725 290.647736
47 290.604584 5.007505 0.000477 -8.810589 11.783251 3.984002 290.647736
48 290.604584 5.007505 0.000477 -7.619170 10.829365 3.242317 290.647736
[L_Leg01]
46 761.932007 -0.002384 -0.069261 -3.159920 -82.925179 8.023502 761.932068
47 761.932007 -0.002384 -0.069261 -3.063013 -80.119171 7.917871 761.932068
48 761.932007 -0.002384 -0.069261 -4.888267 -77.374863 9.814469 761.932068
[L_Leg02]
46 1441.140503 -0.000954 -0.000715 -0.791342 0.334014 -116.789215 1441.140503
47 1441.140503 -0.000954 -0.000715 -0.710320 0.295817 -116.783340 1441.140503
48 1441.140503 -0.000954 -0.000715 -0.500908 0.219738 -117.733215 1441.140503
[L_Leg03]
46 1686.963989 -0.000715 -0.000954 0.033308 -0.006812 101.311119 1686.963989
47 1686.963989 -0.000715 -0.000954 0.028607 -0.006640 102.456810 1686.963989
48 1686.963989 -0.000715 -0.000954 0.023909 -0.006373 103.602623 1686.963989
[L_Foot]
46 3041.570068 -30.715107 11.297464 2.449534 5.264980 34.168419 3041.746094
47 3041.570068 -30.715107 11.297464 3.022276 5.543759 34.807590 3041.746094
48 3041.570068 -30.715107 11.297464 3.598383 5.816144 35.449825 3041.746094
[L_Toe1_01]
46 -188.216690 -224.732346 -21.137953 89.165199 -4.296735 -153.923981 293.899567
47 -188.216690 -224.732346 -21.137953 89.362312 -3.446845 -156.953522 293.899567
48 -188.216690 -224.732346 -21.137953 89.610352 -2.659494 -159.127502 293.899567
[L_Toe2_01]
46 200.746536 -219.926590 148.838394 -77.251282 -12.617056 -49.236706 332.896027
47 200.746536 -219.926590 148.838394 -78.821877 -13.691391 -44.992561 332.896027
48 200.746536 -219.926590 148.838394 -80.477348 -14.648935 -40.700535 332.896027
[L_Toe3_01]
46 188.832520 -219.859131 -191.078659 -109.599434 22.165346 -54.126198 347.140900
47 188.832520 -219.859131 -191.078659 -108.534637 25.972763 -50.422146 347.140900
48 188.832520 -219.859131 -191.078659 -107.369888 29.284184 -47.264099 347.140900
[planeAlignerLeft]
46 117.961823 -665.055908 6.064427 171.066818 -89.420204 98.458527 675.463684
47 74.260170 -600.527954 -11.847955 171.085907 -88.969978 98.082664 605.217957
48 37.577908 -547.242249 -26.783085 170.985153 -88.519852 97.826462 549.184387
[L_Toe1_02]
46 413.761139 0.000477 0.000000 0.001387 -25.637489 0.001387 413.761139
47 413.761139 0.000477 0.000000 0.001388 -25.515741 0.001388 413.761139
48 413.761139 0.000477 0.000000 0.001393 -24.781523 0.001393 413.761139
[L_Toe1_03]
46 464.317322 0.000358 -0.000089 0.003255 47.725403 0.003255 464.317322
47 464.317322 0.000358 -0.000089 0.003009 44.094505 0.003009 464.317322
48 464.317322 0.000358 -0.000089 0.002730 39.068462 0.002730 464.317322
[L_Toe2_02]
46 342.235809 -0.000477 0.000238 0.001195 -68.377075 0.001195 342.235809
47 342.235809 -0.000477 0.000238 0.001185 -74.239143 0.001185 342.235809
48 342.235809 -0.000477 0.000238 0.001181 -77.366882 0.001181 342.235809
[L_Toe2_03]
46 420.210846 -0.000715 0.000000 0.009679 76.071671 0.009679 420.210846
47 420.210846 -0.000715 0.000000 0.000000 89.529778 0.003501 420.210846
48 420.210846 -0.000715 0.000000 -179.995895 78.746643 -179.992386 420.210846
[L_Toe3_02]
46 329.270111 0.000954 0.000000 0.001178 -80.415489 0.001178 329.270111
47 329.270111 0.000954 0.000000 0.001176 -82.319901 0.001176 329.270111
48 329.270111 0.000954 0.000000 0.001176 -83.355392 0.001176 329.270111
[L_Toe3_03]
46 439.137451 -0.001907 0.000954 -179.995911 78.700089 -179.992386 439.137451
47 439.137451 -0.001907 0.000954 -179.998428 70.269470 -179.994873 439.137451
48 439.137451 -0.001907 0.000954 179.991211 63.936581 179.998383 439.137451
[planeLockWeightLeft]
46 1000.000122 0.000000 0.000044 -0.011826 -0.004376 0.005620 1000.000122
47 1000.000122 0.000000 0.000033 -0.011826 -0.004376 0.005620 1000.000122
48 1000.000122 0.000000 0.000021 -0.011826 -0.004376 0.005620 1000.000122
[R_Leg01]
46 761.455627 -0.001907 -0.000358 122.931740 -28.606054 56.990997 761.455688
47 761.455627 -0.001907 -0.000358 125.222473 -30.230330 53.607815 761.455688
48 761.455627 -0.001907 -0.000358 127.586517 -31.013571 50.058922 761.455688
[R_Leg02]
46 1441.140625 0.000000 -0.000238 -0.378493 -0.007446 -120.406540 1441.140625
47 1441.140625 0.000000 -0.000238 -0.512582 -0.034334 -123.903427 1441.140625
48 1441.140625 0.000000 -0.000238 -0.644781 -0.069352 -127.400269 1441.140625
[R_Leg03]
46 1686.963989 0.000954 0.001431 0.040752 -0.018758 121.483055 1686.963989
47 1686.963989 0.000954 0.001431 0.047161 -0.021388 123.266724 1686.963989
48 1686.963989 0.000954 0.001431 0.055644 -0.028863 125.564476 1686.963989
[R_Foot]
46 3041.560059 -30.531288 -11.204481 27.675892 -29.588158 51.224136 3041.734131
47 3041.560059 -30.531288 -11.204481 26.494110 -28.036499 51.892303 3041.734131
48 3041.560059 -30.531288 -11.204481 25.215475 -26.578251 52.638229 3041.734131
[planeAlignerRight]
46 -23.068338 -802.540955 -57.952835 -34.413277 -89.403900 -55.983231 804.961304
47 -19.100113 -797.308167 -56.409786 -35.782753 -88.937614 -54.921299 799.529358
48 -17.847923 -790.528320 -59.345493 -36.335899 -88.059021 -54.932018 792.953552
[R_Toe1_01]
46 -188.383347 -224.864899 21.052242 90.642883 -1.593839 -146.722504 294.101532
47 -188.383347 -224.864899 21.052242 90.322617 -2.011242 -147.824188 294.101532
48 -188.383347 -224.864899 21.052242 89.683144 -2.221740 -149.274368 294.101532
[R_Toe2_01]
46 200.637817 -220.002121 -148.787384 -100.718895 1.164443 -54.826855 332.857574
47 200.637817 -220.002121 -148.787384 -100.247314 1.806539 -54.876781 332.857574
48 200.637817 -220.002121 -148.787384 -99.776062 2.449032 -54.921425 332.857574
[R_Toe3_01]
46 188.606735 -220.092957 191.126343 -59.511547 -29.871374 -71.298355 347.192566
47 188.606735 -220.092957 191.126343 -59.853371 -29.603554 -71.085960 347.192566
48 188.606735 -220.092957 191.126343 -60.395004 -28.835911 -71.089134 347.192566
[planeLockWeightRight]
46 999.999573 0.000499 -0.000310 -0.011823 -0.004379 -0.000027 999.999573
47 999.999573 0.000494 -0.000319 -0.011823 -0.004379 -0.000027 999.999573
48 999.999573 0.000488 -0.000328 -0.011823 -0.004379 -0.000027 999.999573
[R_Toe1_02]
46 413.762085 0.000477 -0.000119 0.001387 -25.635052 0.001387 413.762085
47 413.762085 0.000477 -0.000119 0.001385 -25.816376 0.001385 413.762085
48 413.762085 0.000477 -0.000119 0.001384 -25.997702 0.001384 413.762085
[R_Toe1_03]
46 464.317810 0.000000 0.001088 0.003242 47.529579 0.003242 464.317810
47 464.317810 0.000000 0.001088 0.003465 50.384327 0.003465 464.317810
48 464.317810 0.000000 0.001088 0.003722 53.237312 0.003722 464.317810
[R_Toe2_02]
46 342.234741 -0.000954 0.000238 0.001213 -60.811230 0.001213 342.234741
47 342.234741 -0.000954 0.000238 0.001214 -60.352440 0.001214 342.234741
48 342.234741 -0.000954 0.000238 0.001214 -60.255211 0.001214 342.234741
[R_Toe2_03]
46 420.210846 0.000715 -0.000268 -0.004190 62.152550 -0.000587 420.210846
47 420.210846 0.000715 -0.000268 -0.004131 61.394569 -0.000522 420.210846
48 420.210846 0.000715 -0.000268 -0.004119 61.233582 -0.000509 420.210846
[R_Toe3_02]
46 329.270355 -0.000477 -0.000954 -0.002385 -63.784267 -0.002385 329.270355
47 329.270355 -0.000477 -0.000954 -0.002391 -62.700794 -0.002391 329.270355
48 329.270355 -0.000477 -0.000954 -0.002393 -62.168739 -0.002393 329.270355
[R_Toe3_03]
46 439.137939 0.000238 0.001431 0.004906 62.317070 0.004906 439.137939
47 439.137939 0.000238 0.001431 0.004659 60.820267 0.004659 439.137939
48 439.137939 0.000238 0.001431 0.004534 59.996204 0.004534 439.137939
[Rear_Leg02]
46 1162.777710 -0.029802 0.005960 -37.273914 31.960577 -112.928513 1162.777710
47 1162.777710 -0.029802 0.005960 -37.472557 31.202053 -113.338890 1162.777710
48 1162.777710 -0.029802 0.005960 -40.238899 26.406851 -119.026482 1162.777710
[Rear_Leg03]
46 607.192505 -0.013351 -0.073195 0.010169 -0.005723 75.095627 607.192505
47 607.192505 -0.013351 -0.073195 0.010157 -0.005744 75.339066 607.192505
48 607.192505 -0.013351 -0.073195 0.010067 -0.005903 77.125954 607.192505
[Rear_Leg04]
46 995.874512 -0.020504 -0.011921 -0.045762 -0.016559 83.631714 995.874573
47 995.874512 -0.020504 -0.011921 -0.045864 -0.016274 84.343735 995.874573
48 995.874512 -0.020504 -0.011921 -0.043071 -0.017594 89.718170 995.874573
[Rear_Foot]
46 3096.176270 -0.067472 -0.041425 71.799950 39.543785 -132.373077 3096.176270
47 3096.176270 -0.067472 -0.041425 70.967590 39.617241 -132.648941 3096.176270
48 3096.176270 -0.067472 -0.041425 74.924606 41.042160 -132.296127 3096.176270
[planeAlignerCenter]
46 -100.166214 -141.473434 -739.086365 1.141673 -0.001643 179.998322 759.142090
47 -118.929695 -187.149231 -757.962708 1.569525 -0.001637 179.998306 789.731995
48 -114.604187 -172.794830 -783.719238 1.997377 -0.001631 179.998306 810.683655
[Rear_Toe1_01]
46 0.653352 83.966492 -371.173737 3.295459 20.784389 96.435165 380.553192
47 0.653352 83.966492 -371.173737 4.377142 22.556396 97.890450 380.553192
48 0.653352 83.966492 -371.173737 4.685582 24.765888 97.849648 380.553192
[Rear_Toe2_01]
46 178.200760 -294.826019 -362.060547 -4.979898 45.206131 -81.997070 499.765686
47 178.200760 -294.826019 -362.060547 -5.930831 43.940784 -83.741699 499.765686
48 178.200760 -294.826019 -362.060547 -6.639673 46.728104 -83.755066 499.765686
[Rear_Toe3_01]
46 -153.359680 -308.780914 -362.060852 -0.784031 43.121029 -113.014626 499.952881
47 -153.359680 -308.780914 -362.060852 -0.522398 40.007637 -112.925407 499.952881
48 -153.359680 -308.780914 -362.060852 -0.676279 43.921398 -113.263878 499.952881
[planeLockWeightCenter]
46 1000.000122 0.000757 -0.000198 -0.011814 -0.004373 -0.000015 1000.000122
47 1000.000122 0.000763 -0.000200 -0.011814 -0.004373 -0.000015 1000.000122
48 740.745911 0.000610 -0.000319 -0.011814 -0.004373 -0.000015 740.745911
[Rear_Toe1_02]
46 379.707825 0.194073 0.000477 -0.006678 -31.245165 -0.006678 379.707855
47 379.707825 0.194073 0.000477 -0.006693 -30.816786 -0.006693 379.707855
48 379.707825 0.194073 0.000477 -0.006707 -30.388416 -0.006707 379.707855
[Rear_Toe1_03]
46 500.129700 0.165701 0.000119 -179.992737 78.012840 -179.996246 500.129761
47 500.129700 0.165701 0.000119 -179.993942 74.640961 -179.997467 500.129761
48 500.129700 0.165701 0.000119 -179.994400 72.755898 -179.997925 500.129761
[Rear_Toe2_02]
46 340.494507 0.000238 -0.000954 0.001196 -67.869949 0.001196 340.494507
47 340.494507 0.000238 -0.000954 0.001212 -61.046047 0.001212 340.494507
48 340.494507 0.000238 -0.000954 0.001197 -67.120209 0.001197 340.494507
[Rear_Toe2_03]
46 433.103577 0.000000 0.000238 0.005848 66.845894 0.005848 433.103546
47 433.103577 0.000000 0.000238 0.004190 57.470974 0.004190 433.103546
48 433.103577 0.000000 0.000238 0.005581 65.723160 0.005581 433.103546
[Rear_Toe3_02]
46 340.494141 -0.000358 -0.000477 -0.002408 -59.422394 -0.002408 340.494171
47 340.494141 -0.000358 -0.000477 -0.002482 -48.767799 -0.002482 340.494171
48 340.494141 -0.000358 -0.000477 -0.002422 -57.128742 -0.002422 340.494171
[Rear_Toe3_03]
46 433.103577 0.001431 -0.000238 -0.000099 55.366581 -0.003762 433.103546
47 433.103577 0.001431 -0.000238 0.000465 43.002892 -0.003348 433.103546
48 433.103577 0.001431 -0.000238 0.000055 52.568790 -0.003637 433.103546
[Back_Bone]
46 1312.175781 -701.934692 0.000954 0.964414 2.808853 -84.593147 1488.125488
47 1312.175781 -701.934692 0.000954 1.460985 2.508366 -85.003304 1488.125488
48 1312.175781 -701.934692 0.000954 1.791484 1.955555 -85.634972 1488.125488
[Head]
46 1406.159424 809.709290 0.001431 -8.071113 2.453280 0.101306 1622.625488
47 1406.159424 809.709290 0.001431 -7.883636 2.327577 0.367760 1622.625488
48 1406.159424 809.709290 0.001431 -7.696734 2.200986 0.633816 1622.625488
[Motor_Bone]
46 1158.364380 -417.834747 0.000477 -2.068580 -0.853146 -106.841263 1231.419434
47 1158.364380 -417.834747 0.000477 -2.008335 -0.793624 -106.782280 1231.419434
48 1158.364380 -417.834747 0.000477 -1.948029 -0.734163 -106.723206 1231.419434
[Ping_Mechanism]
46 1303.807617 -460.349701 -47.536224 0.000103 -0.000053 82.120995 1383.508545
47 1309.808350 -461.425140 -44.593178 0.000103 -0.000053 82.120995 1389.424194
48 1315.809082 -462.500580 -41.650127 0.000103 -0.000053 82.120995 1395.347656
[BN_LookIK]
46 193.241119 1380.371704 -0.002861 0.000000 89.965736 -31.038179 1393.832153
47 193.241119 1380.371704 -0.002861 0.000000 89.965736 -31.038179 1393.832153
48 193.241119 1380.371704 -0.002861 0.000000 89.965736 -31.038179 1393.832153
[bottomMouth]
46 -435.092926 615.759399 -0.000954 -0.000022 0.000016 73.527184 753.966492
47 -435.092926 615.759399 -0.000954 -0.000022 0.000016 73.527184 753.966492
48 -435.092926 615.759399 -0.000954 -0.000022 0.000016 73.527184 753.966492
[L_Mouth01]
46 554.440979 7.658243 838.222046 150.204178 23.759130 109.605339 1005.027161
47 554.440979 7.658243 838.222046 150.204178 23.759130 109.605339 1005.027161
48 554.440979 7.658243 838.222046 150.204178 23.759130 109.605339 1005.027161
[L_mouthFront]
46 551.629089 934.514771 339.150421 0.000081 2.804060 79.119301 1136.941284
47 551.629089 934.514771 339.150421 0.000081 2.804060 79.119301 1136.941284
48 551.629089 934.514771 339.150421 0.000081 2.804060 79.119301 1136.941284
[mouthGun]
46 55.332661 1627.420898 0.000000 0.000023 0.000009 -11.038128 1628.361328
47 55.332661 1627.420898 0.000000 0.000023 0.000009 -11.038128 1628.361328
48 55.332661 1627.420898 0.000000 0.000023 0.000009 -11.038128 1628.361328
[R_Mouth01]
46 554.442383 7.659197 -838.223938 29.795891 -23.759109 109.605331 1005.029541
47 554.442383 7.659197 -838.223938 29.795891 -23.759109 109.605331 1005.029541
48 554.442383 7.659197 -838.223938 29.795891 -23.759109 109.605331 1005.029541
[R_mouthFront]
46 551.629089 934.514282 -339.151367 0.000029 -2.803930 79.119133 1136.941162
47 551.629089 934.514282 -339.151367 0.000029 -2.803930 79.119133 1136.941162
48 551.629089 934.514282 -339.151367 0.000029 -2.803930 79.119133 1136.941162
[TopMouth]
46 461.269867 -56.106091 -0.008583 -0.000059 -0.000268 92.025169 464.669525
47 461.269867 -56.106091 -0.008583 -0.000059 -0.000268 92.025169 464.669525
48 461.269867 -56.106091 -0.008583 -0.000059 -0.000268 92.025169 464.669525
[weapon_bone]
46 -987.239868 1448.372803 0.001431 0.000000 89.965736 -31.038221 1752.833740
47 -987.239868 1448.372803 0.001431 0.000000 89.965736 -31.038221 1752.833740
48 -987.239868 1448.372803 0.001431 0.000000 89.965736 -31.038221 1752.833740
